<?xml version="1.0" standalone="no"?><svg xmlns="http://www.w3.org/2000/svg" viewBox="0 0 1440 320"><path fill="#05386B" fill-opacity="1" d="M0,256L40,266.7C80,277,160,299,240,266.7C320,235,400,149,480,133.3C560,117,640,171,720,170.7C800,171,880,117,960,106.7C1040,96,1120,128,1200,149.3C1280,171,1360,181,1400,186.7L1440,192L1440,320L1400,320C1360,320,1280,320,1200,320C1120,320,1040,320,960,320C880,320,800,320,720,320C640,320,560,320,480,320C400,320,320,320,240,320C160,320,80,320,40,320L0,320Z"></path></svg>